<?xml version="1.0" encoding="utf-8"?>
<!-- Generator: Adobe Illustrator 27.7.0, SVG Export Plug-In . SVG Version: 6.00 Build 0)  -->
<svg version="1.1" id="Layer_1" xmlns="http://www.w3.org/2000/svg" xmlns:xlink="http://www.w3.org/1999/xlink" x="0px" y="0px"
	 viewBox="0 0 184 224" style="enable-background:new 0 0 184 224;" xml:space="preserve">
<style type="text/css">
	.st0{opacity:0.2;clip-path:url(#SVGID_00000067942309778788752790000012721973292521022091_);}
	.st1{fill:#FFFFFF;}
</style>
<rect width="184" height="223.9"/>
<g>
	<defs>
		<rect id="SVGID_1_" y="-0.18" width="184" height="224.08"/>
	</defs>
	<clipPath id="SVGID_00000176749982877332566540000008293625077388258223_">
		<use xlink:href="#SVGID_1_"  style="overflow:visible;"/>
	</clipPath>
	<g style="opacity:0.2;clip-path:url(#SVGID_00000176749982877332566540000008293625077388258223_);">
		<g>
			<polygon class="st1" points="-105.96,255.92 -108.59,255.92 -287.79,-11.43 -285.16,-11.43 			"/>
		</g>
		<g>
			<polygon class="st1" points="-98.46,255.92 -101.08,255.92 -280.28,-11.43 -277.66,-11.43 			"/>
		</g>
		<g>
			<polygon class="st1" points="-90.96,255.92 -93.58,255.92 -272.78,-11.43 -270.16,-11.43 			"/>
		</g>
		<g>
			<polygon class="st1" points="-83.45,255.92 -86.08,255.92 -265.28,-11.43 -262.65,-11.43 			"/>
		</g>
		<g>
			<polygon class="st1" points="-75.95,255.92 -78.57,255.92 -257.77,-11.43 -255.15,-11.43 			"/>
		</g>
		<g>
			<polygon class="st1" points="-68.45,255.92 -71.07,255.92 -250.27,-11.43 -247.65,-11.43 			"/>
		</g>
		<g>
			<polygon class="st1" points="-60.94,255.92 -63.57,255.92 -242.77,-11.43 -240.14,-11.43 			"/>
		</g>
		<g>
			<polygon class="st1" points="-53.44,255.92 -56.06,255.92 -235.26,-11.43 -232.64,-11.43 			"/>
		</g>
		<g>
			<polygon class="st1" points="-45.94,255.92 -48.56,255.92 -227.76,-11.43 -225.14,-11.43 			"/>
		</g>
		<g>
			<polygon class="st1" points="-38.43,255.92 -41.06,255.92 -220.26,-11.43 -217.63,-11.43 			"/>
		</g>
		<g>
			<polygon class="st1" points="-30.93,255.92 -33.55,255.92 -212.75,-11.43 -210.13,-11.43 			"/>
		</g>
		<g>
			<polygon class="st1" points="-23.43,255.92 -26.05,255.92 -205.25,-11.43 -202.63,-11.43 			"/>
		</g>
		<g>
			<polygon class="st1" points="-15.92,255.92 -18.55,255.92 -197.75,-11.43 -195.12,-11.43 			"/>
		</g>
		<g>
			<polygon class="st1" points="-8.42,255.92 -11.04,255.92 -190.24,-11.43 -187.62,-11.43 			"/>
		</g>
		<g>
			<polygon class="st1" points="-0.92,255.92 -3.54,255.92 -182.74,-11.43 -180.12,-11.43 			"/>
		</g>
		<g>
			<polygon class="st1" points="6.59,255.92 3.96,255.92 -175.24,-11.43 -172.61,-11.43 			"/>
		</g>
		<g>
			<polygon class="st1" points="14.09,255.92 11.47,255.92 -167.74,-11.43 -165.11,-11.43 			"/>
		</g>
		<g>
			<polygon class="st1" points="21.59,255.92 18.97,255.92 -160.23,-11.43 -157.61,-11.43 			"/>
		</g>
		<g>
			<polygon class="st1" points="29.1,255.92 26.47,255.92 -152.73,-11.43 -150.1,-11.43 			"/>
		</g>
		<g>
			<polygon class="st1" points="36.6,255.92 33.97,255.92 -145.23,-11.43 -142.6,-11.43 			"/>
		</g>
		<g>
			<polygon class="st1" points="44.1,255.92 41.48,255.92 -137.72,-11.43 -135.1,-11.43 			"/>
		</g>
		<g>
			<polygon class="st1" points="51.61,255.92 48.98,255.92 -130.22,-11.43 -127.59,-11.43 			"/>
		</g>
		<g>
			<polygon class="st1" points="59.11,255.92 56.48,255.92 -122.72,-11.43 -120.09,-11.43 			"/>
		</g>
		<g>
			<polygon class="st1" points="66.61,255.92 63.99,255.92 -115.21,-11.43 -112.59,-11.43 			"/>
		</g>
		<g>
			<polygon class="st1" points="74.12,255.92 71.49,255.92 -107.71,-11.43 -105.08,-11.43 			"/>
		</g>
		<g>
			<polygon class="st1" points="81.62,255.92 78.99,255.92 -100.21,-11.43 -97.58,-11.43 			"/>
		</g>
		<g>
			<polygon class="st1" points="89.12,255.92 86.5,255.92 -92.7,-11.43 -90.08,-11.43 			"/>
		</g>
		<g>
			<polygon class="st1" points="96.63,255.92 94,255.92 -85.2,-11.43 -82.57,-11.43 			"/>
		</g>
		<g>
			<polygon class="st1" points="104.13,255.92 101.5,255.92 -77.7,-11.43 -75.07,-11.43 			"/>
		</g>
		<g>
			<polygon class="st1" points="111.63,255.92 109.01,255.92 -70.19,-11.43 -67.57,-11.43 			"/>
		</g>
		<g>
			<polygon class="st1" points="119.14,255.92 116.51,255.92 -62.69,-11.43 -60.07,-11.43 			"/>
		</g>
		<g>
			<polygon class="st1" points="126.64,255.92 124.01,255.92 -55.19,-11.43 -52.56,-11.43 			"/>
		</g>
		<g>
			<polygon class="st1" points="134.14,255.92 131.52,255.92 -47.68,-11.43 -45.06,-11.43 			"/>
		</g>
		<g>
			<polygon class="st1" points="141.64,255.92 139.02,255.92 -40.18,-11.43 -37.56,-11.43 			"/>
		</g>
		<g>
			<polygon class="st1" points="149.15,255.92 146.52,255.92 -32.68,-11.43 -30.05,-11.43 			"/>
		</g>
		<g>
			<polygon class="st1" points="156.65,255.92 154.03,255.92 -25.17,-11.43 -22.55,-11.43 			"/>
		</g>
		<g>
			<polygon class="st1" points="164.15,255.92 161.53,255.92 -17.67,-11.43 -15.05,-11.43 			"/>
		</g>
		<g>
			<polygon class="st1" points="171.66,255.92 169.03,255.92 -10.17,-11.43 -7.54,-11.43 			"/>
		</g>
		<g>
			<polygon class="st1" points="179.16,255.92 176.54,255.92 -2.66,-11.43 -0.04,-11.43 			"/>
		</g>
		<g>
			<polygon class="st1" points="186.66,255.92 184.04,255.92 4.84,-11.43 7.46,-11.43 			"/>
		</g>
		<g>
			<polygon class="st1" points="194.17,255.92 191.54,255.92 12.34,-11.43 14.97,-11.43 			"/>
		</g>
		<g>
			<polygon class="st1" points="201.67,255.92 199.05,255.92 19.85,-11.43 22.47,-11.43 			"/>
		</g>
		<g>
			<polygon class="st1" points="209.17,255.92 206.55,255.92 27.35,-11.43 29.97,-11.43 			"/>
		</g>
		<g>
			<polygon class="st1" points="216.68,255.92 214.05,255.92 34.85,-11.43 37.48,-11.43 			"/>
		</g>
		<g>
			<polygon class="st1" points="224.18,255.92 221.56,255.92 42.36,-11.43 44.98,-11.43 			"/>
		</g>
		<g>
			<polygon class="st1" points="231.68,255.92 229.06,255.92 49.86,-11.43 52.48,-11.43 			"/>
		</g>
		<g>
			<polygon class="st1" points="239.19,255.92 236.56,255.92 57.36,-11.43 59.99,-11.43 			"/>
		</g>
		<g>
			<polygon class="st1" points="246.69,255.92 244.07,255.92 64.86,-11.43 67.49,-11.43 			"/>
		</g>
		<g>
			<polygon class="st1" points="254.19,255.92 251.57,255.92 72.37,-11.43 74.99,-11.43 			"/>
		</g>
		<g>
			<polygon class="st1" points="261.7,255.92 259.07,255.92 79.87,-11.43 82.5,-11.43 			"/>
		</g>
		<g>
			<polygon class="st1" points="269.2,255.92 266.57,255.92 87.37,-11.43 90,-11.43 			"/>
		</g>
		<g>
			<polygon class="st1" points="276.7,255.92 274.08,255.92 94.88,-11.43 97.5,-11.43 			"/>
		</g>
		<g>
			<polygon class="st1" points="284.21,255.92 281.58,255.92 102.38,-11.43 105.01,-11.43 			"/>
		</g>
		<g>
			<polygon class="st1" points="291.71,255.92 289.08,255.92 109.88,-11.43 112.51,-11.43 			"/>
		</g>
		<g>
			<polygon class="st1" points="299.21,255.92 296.59,255.92 117.39,-11.43 120.01,-11.43 			"/>
		</g>
		<g>
			<polygon class="st1" points="306.72,255.92 304.09,255.92 124.89,-11.43 127.52,-11.43 			"/>
		</g>
		<g>
			<polygon class="st1" points="314.22,255.92 311.59,255.92 132.39,-11.43 135.02,-11.43 			"/>
		</g>
		<g>
			<polygon class="st1" points="321.72,255.92 319.1,255.92 139.9,-11.43 142.52,-11.43 			"/>
		</g>
		<g>
			<polygon class="st1" points="329.23,255.92 326.6,255.92 147.4,-11.43 150.03,-11.43 			"/>
		</g>
		<g>
			<polygon class="st1" points="336.73,255.92 334.1,255.92 154.9,-11.43 157.53,-11.43 			"/>
		</g>
		<g>
			<polygon class="st1" points="344.23,255.92 341.61,255.92 162.41,-11.43 165.03,-11.43 			"/>
		</g>
		<g>
			<polygon class="st1" points="351.74,255.92 349.11,255.92 169.91,-11.43 172.53,-11.43 			"/>
		</g>
		<g>
			<polygon class="st1" points="359.24,255.92 356.61,255.92 177.41,-11.43 180.04,-11.43 			"/>
		</g>
		<g>
			<polygon class="st1" points="366.74,255.92 364.12,255.92 184.92,-11.43 187.54,-11.43 			"/>
		</g>
		<g>
			<polygon class="st1" points="374.24,255.92 371.62,255.92 192.42,-11.43 195.04,-11.43 			"/>
		</g>
		<g>
			<polygon class="st1" points="381.75,255.92 379.12,255.92 199.92,-11.43 202.55,-11.43 			"/>
		</g>
		<g>
			<polygon class="st1" points="389.25,255.92 386.63,255.92 207.43,-11.43 210.05,-11.43 			"/>
		</g>
		<g>
			<polygon class="st1" points="396.75,255.92 394.13,255.92 214.93,-11.43 217.55,-11.43 			"/>
		</g>
		<g>
			<polygon class="st1" points="404.26,255.92 401.63,255.92 222.43,-11.43 225.06,-11.43 			"/>
		</g>
		<g>
			<polygon class="st1" points="411.76,255.92 409.14,255.92 229.94,-11.43 232.56,-11.43 			"/>
		</g>
		<g>
			<polygon class="st1" points="419.26,255.92 416.64,255.92 237.44,-11.43 240.06,-11.43 			"/>
		</g>
		<g>
			<polygon class="st1" points="426.77,255.92 424.14,255.92 244.94,-11.43 247.57,-11.43 			"/>
		</g>
		<g>
			<polygon class="st1" points="434.27,255.92 431.65,255.92 252.45,-11.43 255.07,-11.43 			"/>
		</g>
		<g>
			<polygon class="st1" points="441.77,255.92 439.15,255.92 259.95,-11.43 262.57,-11.43 			"/>
		</g>
		<g>
			<polygon class="st1" points="449.28,255.92 446.65,255.92 267.45,-11.43 270.08,-11.43 			"/>
		</g>
		<g>
			<polygon class="st1" points="456.78,255.92 454.16,255.92 274.96,-11.43 277.58,-11.43 			"/>
		</g>
		<g>
			<polygon class="st1" points="464.28,255.92 461.66,255.92 282.46,-11.43 285.08,-11.43 			"/>
		</g>
		<g>
			<polygon class="st1" points="471.79,255.92 469.16,255.92 289.96,-11.43 292.59,-11.43 			"/>
		</g>
	</g>
</g>
</svg>
