<?xml version="1.0" encoding="utf-8"?>
<!-- Generator: Adobe Illustrator 27.7.0, SVG Export Plug-In . SVG Version: 6.00 Build 0)  -->
<svg version="1.1" id="Layer_1" xmlns="http://www.w3.org/2000/svg" xmlns:xlink="http://www.w3.org/1999/xlink" x="0px" y="0px"
	 viewBox="0 0 9.9 23.8" style="enable-background:new 0 0 9.9 23.8;" xml:space="preserve">
<style type="text/css">
	.st0{opacity:0.2;clip-path:url(#SVGID_00000029726714353424357340000012589445653580127618_);}
	.st1{fill:#FFFFFF;}
	.st2{clip-path:url(#SVGID_00000137122222186401160620000016700302019175850646_);}
	.st3{opacity:0.2;}
	.st4{fill:#FF0000;stroke:#FFFFFF;stroke-width:0.25;stroke-miterlimit:10;}
	.st5{fill:none;stroke:#FFFFFF;stroke-width:0.25;stroke-miterlimit:10;}
	.st6{fill:#FBB03B;}
</style>
<g>
	<g>
		<defs>
			<path id="SVGID_00000019661026572987451660000002508019504442308261_" d="M-218-14.2c-43.5,0-78.8,35.3-78.8,78.8
				s35.3,78.8,78.8,78.8s78.8-35.3,78.8-78.8S-174.5-14.2-218-14.2z M-218,121c-31.2,0-56.4-25.3-56.4-56.4S-249.1,8.1-218,8.1
				s56.4,25.3,56.4,56.4S-186.8,121-218,121z"/>
		</defs>
		<clipPath id="SVGID_00000143589056586072660790000017089548016943830415_">
			<use xlink:href="#SVGID_00000019661026572987451660000002508019504442308261_"  style="overflow:visible;"/>
		</clipPath>
		<g style="clip-path:url(#SVGID_00000143589056586072660790000017089548016943830415_);">
			<g class="st3">
				<g>
					<polygon class="st1" points="4.3,208.5 1.6,208.5 -177.6,-58.9 -174.9,-58.9 					"/>
				</g>
				<g>
					<polygon class="st1" points="11.8,208.5 9.1,208.5 -170.1,-58.9 -167.4,-58.9 					"/>
				</g>
				<g>
					<polygon class="st1" points="19.3,208.5 16.6,208.5 -162.6,-58.9 -159.9,-58.9 					"/>
				</g>
				<g>
					<polygon class="st1" points="26.8,208.5 24.1,208.5 -155.1,-58.9 -152.4,-58.9 					"/>
				</g>
				<g>
					<polygon class="st1" points="34.3,208.5 31.6,208.5 -147.6,-58.9 -144.9,-58.9 					"/>
				</g>
				<g>
					<polygon class="st1" points="41.8,208.5 39.1,208.5 -140.1,-58.9 -137.4,-58.9 					"/>
				</g>
				<g>
					<polygon class="st1" points="49.3,208.5 46.6,208.5 -132.6,-58.9 -129.9,-58.9 					"/>
				</g>
				<g>
					<polygon class="st1" points="56.8,208.5 54.2,208.5 -125,-58.9 -122.4,-58.9 					"/>
				</g>
				<g>
					<polygon class="st1" points="64.3,208.5 61.7,208.5 -117.5,-58.9 -114.9,-58.9 					"/>
				</g>
				<g>
					<polygon class="st1" points="71.8,208.5 69.2,208.5 -110,-58.9 -107.4,-58.9 					"/>
				</g>
				<g>
					<polygon class="st1" points="79.3,208.5 76.7,208.5 -102.5,-58.9 -99.9,-58.9 					"/>
				</g>
				<g>
					<polygon class="st1" points="86.8,208.5 84.2,208.5 -95,-58.9 -92.4,-58.9 					"/>
				</g>
				<g>
					<polygon class="st1" points="94.3,208.5 91.7,208.5 -87.5,-58.9 -84.9,-58.9 					"/>
				</g>
				<g>
					<polygon class="st1" points="101.8,208.5 99.2,208.5 -80,-58.9 -77.4,-58.9 					"/>
				</g>
				<g>
					<polygon class="st1" points="109.3,208.5 106.7,208.5 -72.5,-58.9 -69.9,-58.9 					"/>
				</g>
				<g>
					<polygon class="st1" points="116.8,208.5 114.2,208.5 -65,-58.9 -62.4,-58.9 					"/>
				</g>
				<g>
					<polygon class="st1" points="124.3,208.5 121.7,208.5 -57.5,-58.9 -54.9,-58.9 					"/>
				</g>
				<g>
					<polygon class="st1" points="131.8,208.5 129.2,208.5 -50,-58.9 -47.4,-58.9 					"/>
				</g>
				<g>
					<polygon class="st1" points="139.3,208.5 136.7,208.5 -42.5,-58.9 -39.9,-58.9 					"/>
				</g>
				<g>
					<polygon class="st1" points="146.8,208.5 144.2,208.5 -35,-58.9 -32.4,-58.9 					"/>
				</g>
				<g>
					<polygon class="st1" points="154.3,208.5 151.7,208.5 -27.5,-58.9 -24.9,-58.9 					"/>
				</g>
				<g>
					<polygon class="st1" points="161.8,208.5 159.2,208.5 -20,-58.9 -17.4,-58.9 					"/>
				</g>
			</g>
		</g>
	</g>
</g>
<g>
	<path class="st6" d="M8.2,0L0,23.2c0.6,0.2,1.2,0.4,1.8,0.6c0.1,0,0.1,0,0.1,0.1l8-23.2L8.2,0z"/>
</g>
</svg>
