<?xml version="1.0" encoding="utf-8"?>
<!-- Generator: Adobe Illustrator 27.7.0, SVG Export Plug-In . SVG Version: 6.00 Build 0)  -->
<svg version="1.1" id="Layer_1" xmlns="http://www.w3.org/2000/svg" xmlns:xlink="http://www.w3.org/1999/xlink" x="0px" y="0px"
	 viewBox="0 0 184 223.9" style="enable-background:new 0 0 184 223.9;" xml:space="preserve">
<style type="text/css">
	.st0{opacity:0.2;clip-path:url(#SVGID_00000035500260780730805060000008401204588217842590_);}
	.st1{fill:#FFFFFF;}
	.st2{clip-path:url(#SVGID_00000144311536159526636070000001967853579615454369_);}
	.st3{opacity:0.2;}
	.st4{fill:#FF0000;stroke:#FFFFFF;stroke-width:0.25;stroke-miterlimit:10;}
	.st5{fill:none;stroke:#FFFFFF;stroke-width:0.25;stroke-miterlimit:10;}
	.st6{fill:#FBB03B;}
</style>
<rect width="184" height="223.9"/>
<g>
	<g>
		<defs>
			<rect id="SVGID_1_" y="-0.2" width="184" height="224.1"/>
		</defs>
		<clipPath id="SVGID_00000128453858929643634370000007615260732040302502_">
			<use xlink:href="#SVGID_1_"  style="overflow:visible;"/>
		</clipPath>
		<g style="opacity:0.2;clip-path:url(#SVGID_00000128453858929643634370000007615260732040302502_);">
			<g>
				<polygon class="st1" points="6.6,255.9 4,255.9 -175.2,-11.4 -172.6,-11.4 				"/>
			</g>
			<g>
				<polygon class="st1" points="14.1,255.9 11.5,255.9 -167.7,-11.4 -165.1,-11.4 				"/>
			</g>
			<g>
				<polygon class="st1" points="21.6,255.9 19,255.9 -160.2,-11.4 -157.6,-11.4 				"/>
			</g>
			<g>
				<polygon class="st1" points="29.1,255.9 26.5,255.9 -152.7,-11.4 -150.1,-11.4 				"/>
			</g>
			<g>
				<polygon class="st1" points="36.6,255.9 34,255.9 -145.2,-11.4 -142.6,-11.4 				"/>
			</g>
			<g>
				<polygon class="st1" points="44.1,255.9 41.5,255.9 -137.7,-11.4 -135.1,-11.4 				"/>
			</g>
			<g>
				<polygon class="st1" points="51.6,255.9 49,255.9 -130.2,-11.4 -127.6,-11.4 				"/>
			</g>
			<g>
				<polygon class="st1" points="59.1,255.9 56.5,255.9 -122.7,-11.4 -120.1,-11.4 				"/>
			</g>
			<g>
				<polygon class="st1" points="66.6,255.9 64,255.9 -115.2,-11.4 -112.6,-11.4 				"/>
			</g>
			<g>
				<polygon class="st1" points="74.1,255.9 71.5,255.9 -107.7,-11.4 -105.1,-11.4 				"/>
			</g>
			<g>
				<polygon class="st1" points="81.6,255.9 79,255.9 -100.2,-11.4 -97.6,-11.4 				"/>
			</g>
			<g>
				<polygon class="st1" points="89.1,255.9 86.5,255.9 -92.7,-11.4 -90.1,-11.4 				"/>
			</g>
			<g>
				<polygon class="st1" points="96.6,255.9 94,255.9 -85.2,-11.4 -82.6,-11.4 				"/>
			</g>
			<g>
				<polygon class="st1" points="104.1,255.9 101.5,255.9 -77.7,-11.4 -75.1,-11.4 				"/>
			</g>
			<g>
				<polygon class="st1" points="111.6,255.9 109,255.9 -70.2,-11.4 -67.6,-11.4 				"/>
			</g>
			<g>
				<polygon class="st1" points="119.1,255.9 116.5,255.9 -62.7,-11.4 -60.1,-11.4 				"/>
			</g>
			<g>
				<polygon class="st1" points="126.6,255.9 124,255.9 -55.2,-11.4 -52.6,-11.4 				"/>
			</g>
			<g>
				<polygon class="st1" points="134.1,255.9 131.5,255.9 -47.7,-11.4 -45.1,-11.4 				"/>
			</g>
			<g>
				<polygon class="st1" points="141.6,255.9 139,255.9 -40.2,-11.4 -37.6,-11.4 				"/>
			</g>
			<g>
				<polygon class="st1" points="149.1,255.9 146.5,255.9 -32.7,-11.4 -30.1,-11.4 				"/>
			</g>
			<g>
				<polygon class="st1" points="156.6,255.9 154,255.9 -25.2,-11.4 -22.6,-11.4 				"/>
			</g>
			<g>
				<polygon class="st1" points="164.2,255.9 161.5,255.9 -17.7,-11.4 -15.1,-11.4 				"/>
			</g>
			<g>
				<polygon class="st1" points="171.7,255.9 169,255.9 -10.2,-11.4 -7.5,-11.4 				"/>
			</g>
			<g>
				<polygon class="st1" points="179.2,255.9 176.5,255.9 -2.7,-11.4 0,-11.4 				"/>
			</g>
			<g>
				<polygon class="st1" points="186.7,255.9 184,255.9 4.8,-11.4 7.5,-11.4 				"/>
			</g>
			<g>
				<polygon class="st1" points="194.2,255.9 191.5,255.9 12.3,-11.4 15,-11.4 				"/>
			</g>
			<g>
				<polygon class="st1" points="201.7,255.9 199,255.9 19.8,-11.4 22.5,-11.4 				"/>
			</g>
			<g>
				<polygon class="st1" points="209.2,255.9 206.5,255.9 27.3,-11.4 30,-11.4 				"/>
			</g>
			<g>
				<polygon class="st1" points="216.7,255.9 214,255.9 34.8,-11.4 37.5,-11.4 				"/>
			</g>
			<g>
				<polygon class="st1" points="224.2,255.9 221.6,255.9 42.4,-11.4 45,-11.4 				"/>
			</g>
			<g>
				<polygon class="st1" points="231.7,255.9 229.1,255.9 49.9,-11.4 52.5,-11.4 				"/>
			</g>
			<g>
				<polygon class="st1" points="239.2,255.9 236.6,255.9 57.4,-11.4 60,-11.4 				"/>
			</g>
			<g>
				<polygon class="st1" points="246.7,255.9 244.1,255.9 64.9,-11.4 67.5,-11.4 				"/>
			</g>
			<g>
				<polygon class="st1" points="254.2,255.9 251.6,255.9 72.4,-11.4 75,-11.4 				"/>
			</g>
			<g>
				<polygon class="st1" points="261.7,255.9 259.1,255.9 79.9,-11.4 82.5,-11.4 				"/>
			</g>
			<g>
				<polygon class="st1" points="269.2,255.9 266.6,255.9 87.4,-11.4 90,-11.4 				"/>
			</g>
			<g>
				<polygon class="st1" points="276.7,255.9 274.1,255.9 94.9,-11.4 97.5,-11.4 				"/>
			</g>
			<g>
				<polygon class="st1" points="284.2,255.9 281.6,255.9 102.4,-11.4 105,-11.4 				"/>
			</g>
			<g>
				<polygon class="st1" points="291.7,255.9 289.1,255.9 109.9,-11.4 112.5,-11.4 				"/>
			</g>
			<g>
				<polygon class="st1" points="299.2,255.9 296.6,255.9 117.4,-11.4 120,-11.4 				"/>
			</g>
			<g>
				<polygon class="st1" points="306.7,255.9 304.1,255.9 124.9,-11.4 127.5,-11.4 				"/>
			</g>
			<g>
				<polygon class="st1" points="314.2,255.9 311.6,255.9 132.4,-11.4 135,-11.4 				"/>
			</g>
			<g>
				<polygon class="st1" points="321.7,255.9 319.1,255.9 139.9,-11.4 142.5,-11.4 				"/>
			</g>
			<g>
				<polygon class="st1" points="329.2,255.9 326.6,255.9 147.4,-11.4 150,-11.4 				"/>
			</g>
			<g>
				<polygon class="st1" points="336.7,255.9 334.1,255.9 154.9,-11.4 157.5,-11.4 				"/>
			</g>
			<g>
				<polygon class="st1" points="344.2,255.9 341.6,255.9 162.4,-11.4 165,-11.4 				"/>
			</g>
			<g>
				<polygon class="st1" points="351.7,255.9 349.1,255.9 169.9,-11.4 172.5,-11.4 				"/>
			</g>
			<g>
				<polygon class="st1" points="359.2,255.9 356.6,255.9 177.4,-11.4 180,-11.4 				"/>
			</g>
		</g>
	</g>
</g>
<g>
	<g>
		<defs>
			<path id="SVGID_00000162312929459474216150000007843073218523961495_" d="M311.7,33.2c-43.5,0-78.8,35.3-78.8,78.8
				s35.3,78.8,78.8,78.8s78.8-35.3,78.8-78.8S355.2,33.2,311.7,33.2z M311.7,168.4c-31.2,0-56.4-25.3-56.4-56.4s25.3-56.4,56.4-56.4
				s56.4,25.3,56.4,56.4S342.8,168.4,311.7,168.4z"/>
		</defs>
		<clipPath id="SVGID_00000036249290453434265490000006980173408434572197_">
			<use xlink:href="#SVGID_00000162312929459474216150000007843073218523961495_"  style="overflow:visible;"/>
		</clipPath>
		<g style="clip-path:url(#SVGID_00000036249290453434265490000006980173408434572197_);">
			<g class="st3">
				<g>
					<polygon class="st1" points="113.7,255.9 111.1,255.9 -68.1,-11.4 -65.5,-11.4 					"/>
				</g>
				<g>
					<polygon class="st1" points="121.2,255.9 118.6,255.9 -60.6,-11.4 -58,-11.4 					"/>
				</g>
				<g>
					<polygon class="st1" points="128.7,255.9 126.1,255.9 -53.1,-11.4 -50.5,-11.4 					"/>
				</g>
				<g>
					<polygon class="st1" points="136.2,255.9 133.6,255.9 -45.6,-11.4 -43,-11.4 					"/>
				</g>
				<g>
					<polygon class="st1" points="143.7,255.9 141.1,255.9 -38.1,-11.4 -35.5,-11.4 					"/>
				</g>
				<g>
					<polygon class="st1" points="151.2,255.9 148.6,255.9 -30.6,-11.4 -28,-11.4 					"/>
				</g>
				<g>
					<polygon class="st1" points="158.7,255.9 156.1,255.9 -23.1,-11.4 -20.5,-11.4 					"/>
				</g>
				<g>
					<polygon class="st1" points="166.2,255.9 163.6,255.9 -15.6,-11.4 -13,-11.4 					"/>
				</g>
				<g>
					<polygon class="st1" points="173.7,255.9 171.1,255.9 -8.1,-11.4 -5.5,-11.4 					"/>
				</g>
				<g>
					<polygon class="st1" points="181.2,255.9 178.6,255.9 -0.6,-11.4 2,-11.4 					"/>
				</g>
				<g>
					<polygon class="st1" points="188.8,255.9 186.1,255.9 6.9,-11.4 9.5,-11.4 					"/>
				</g>
				<g>
					<polygon class="st1" points="196.2,255.9 193.6,255.9 14.4,-11.4 17,-11.4 					"/>
				</g>
				<g>
					<polygon class="st1" points="203.8,255.9 201.1,255.9 21.9,-11.4 24.6,-11.4 					"/>
				</g>
				<g>
					<polygon class="st1" points="211.3,255.9 208.6,255.9 29.4,-11.4 32.1,-11.4 					"/>
				</g>
				<g>
					<polygon class="st1" points="218.8,255.9 216.1,255.9 36.9,-11.4 39.6,-11.4 					"/>
				</g>
				<g>
					<polygon class="st1" points="226.3,255.9 223.6,255.9 44.4,-11.4 47.1,-11.4 					"/>
				</g>
				<g>
					<polygon class="st1" points="233.8,255.9 231.1,255.9 51.9,-11.4 54.6,-11.4 					"/>
				</g>
				<g>
					<polygon class="st1" points="241.3,255.9 238.6,255.9 59.4,-11.4 62.1,-11.4 					"/>
				</g>
				<g>
					<polygon class="st1" points="248.8,255.9 246.1,255.9 66.9,-11.4 69.6,-11.4 					"/>
				</g>
				<g>
					<polygon class="st1" points="256.3,255.9 253.6,255.9 74.4,-11.4 77.1,-11.4 					"/>
				</g>
				<g>
					<polygon class="st1" points="263.8,255.9 261.2,255.9 82,-11.4 84.6,-11.4 					"/>
				</g>
				<g>
					<polygon class="st1" points="271.3,255.9 268.7,255.9 89.5,-11.4 92.1,-11.4 					"/>
				</g>
				<g>
					<polygon class="st1" points="278.8,255.9 276.2,255.9 97,-11.4 99.6,-11.4 					"/>
				</g>
				<g>
					<polygon class="st1" points="286.3,255.9 283.7,255.9 104.5,-11.4 107.1,-11.4 					"/>
				</g>
				<g>
					<polygon class="st1" points="293.8,255.9 291.2,255.9 112,-11.4 114.6,-11.4 					"/>
				</g>
				<g>
					<polygon class="st1" points="301.3,255.9 298.7,255.9 119.5,-11.4 122.1,-11.4 					"/>
				</g>
				<g>
					<polygon class="st1" points="308.8,255.9 306.2,255.9 127,-11.4 129.6,-11.4 					"/>
				</g>
				<g>
					<polygon class="st1" points="316.3,255.9 313.7,255.9 134.5,-11.4 137.1,-11.4 					"/>
				</g>
				<g>
					<polygon class="st1" points="323.8,255.9 321.2,255.9 142,-11.4 144.6,-11.4 					"/>
				</g>
				<g>
					<polygon class="st1" points="331.3,255.9 328.7,255.9 149.5,-11.4 152.1,-11.4 					"/>
				</g>
				<g>
					<polygon class="st1" points="338.8,255.9 336.2,255.9 157,-11.4 159.6,-11.4 					"/>
				</g>
				<g>
					<polygon class="st1" points="346.3,255.9 343.7,255.9 164.5,-11.4 167.1,-11.4 					"/>
				</g>
				<g>
					<polygon class="st1" points="353.8,255.9 351.2,255.9 172,-11.4 174.6,-11.4 					"/>
				</g>
				<g>
					<polygon class="st1" points="361.3,255.9 358.7,255.9 179.5,-11.4 182.1,-11.4 					"/>
				</g>
			</g>
		</g>
	</g>
</g>
</svg>
