<?xml version="1.0" encoding="utf-8"?>
<!-- Generator: Adobe Illustrator 27.7.0, SVG Export Plug-In . SVG Version: 6.00 Build 0)  -->
<svg version="1.1" id="Layer_1" xmlns="http://www.w3.org/2000/svg" xmlns:xlink="http://www.w3.org/1999/xlink" x="0px" y="0px"
	 viewBox="0 0 184 224" style="enable-background:new 0 0 184 224;" xml:space="preserve">
<style type="text/css">
	.st0{opacity:0.2;clip-path:url(#SVGID_00000070800990259644304640000012821490939615457208_);}
	.st1{fill:#FFFFFF;}
	.st2{clip-path:url(#SVGID_00000181770634959853403390000015639845521087787165_);}
	.st3{opacity:0.2;}
	.st4{fill:#FF0000;stroke:#FFFFFF;stroke-width:0.25;stroke-miterlimit:10;}
	.st5{fill:none;stroke:#FFFFFF;stroke-width:0.25;stroke-miterlimit:10;}
	.st6{fill:#FBB03B;}
</style>
<rect y="0.1" width="184" height="223.9"/>
<g>
	<g>
		<defs>
			<rect id="SVGID_1_" y="0" width="184" height="224.1"/>
		</defs>
		<clipPath id="SVGID_00000113348170932485519390000004637363985797013942_">
			<use xlink:href="#SVGID_1_"  style="overflow:visible;"/>
		</clipPath>
		<g style="opacity:0.2;clip-path:url(#SVGID_00000113348170932485519390000004637363985797013942_);">
			<g>
				<polygon class="st1" points="6.6,256.1 4,256.1 -175.2,-11.3 -172.6,-11.3 				"/>
			</g>
			<g>
				<polygon class="st1" points="14.1,256.1 11.5,256.1 -167.7,-11.3 -165.1,-11.3 				"/>
			</g>
			<g>
				<polygon class="st1" points="21.6,256.1 19,256.1 -160.2,-11.3 -157.6,-11.3 				"/>
			</g>
			<g>
				<polygon class="st1" points="29.1,256.1 26.5,256.1 -152.7,-11.3 -150.1,-11.3 				"/>
			</g>
			<g>
				<polygon class="st1" points="36.6,256.1 34,256.1 -145.2,-11.3 -142.6,-11.3 				"/>
			</g>
			<g>
				<polygon class="st1" points="44.1,256.1 41.5,256.1 -137.7,-11.3 -135.1,-11.3 				"/>
			</g>
			<g>
				<polygon class="st1" points="51.6,256.1 49,256.1 -130.2,-11.3 -127.6,-11.3 				"/>
			</g>
			<g>
				<polygon class="st1" points="59.1,256.1 56.5,256.1 -122.7,-11.3 -120.1,-11.3 				"/>
			</g>
			<g>
				<polygon class="st1" points="66.6,256.1 64,256.1 -115.2,-11.3 -112.6,-11.3 				"/>
			</g>
			<g>
				<polygon class="st1" points="74.1,256.1 71.5,256.1 -107.7,-11.3 -105.1,-11.3 				"/>
			</g>
			<g>
				<polygon class="st1" points="81.6,256.1 79,256.1 -100.2,-11.3 -97.6,-11.3 				"/>
			</g>
			<g>
				<polygon class="st1" points="89.1,256.1 86.5,256.1 -92.7,-11.3 -90.1,-11.3 				"/>
			</g>
			<g>
				<polygon class="st1" points="96.6,256.1 94,256.1 -85.2,-11.3 -82.6,-11.3 				"/>
			</g>
			<g>
				<polygon class="st1" points="104.1,256.1 101.5,256.1 -77.7,-11.3 -75.1,-11.3 				"/>
			</g>
			<g>
				<polygon class="st1" points="111.6,256.1 109,256.1 -70.2,-11.3 -67.6,-11.3 				"/>
			</g>
			<g>
				<polygon class="st1" points="119.1,256.1 116.5,256.1 -62.7,-11.3 -60.1,-11.3 				"/>
			</g>
			<g>
				<polygon class="st1" points="126.6,256.1 124,256.1 -55.2,-11.3 -52.6,-11.3 				"/>
			</g>
			<g>
				<polygon class="st1" points="134.1,256.1 131.5,256.1 -47.7,-11.3 -45.1,-11.3 				"/>
			</g>
			<g>
				<polygon class="st1" points="141.6,256.1 139,256.1 -40.2,-11.3 -37.6,-11.3 				"/>
			</g>
			<g>
				<polygon class="st1" points="149.1,256.1 146.5,256.1 -32.7,-11.3 -30.1,-11.3 				"/>
			</g>
			<g>
				<polygon class="st1" points="156.6,256.1 154,256.1 -25.2,-11.3 -22.6,-11.3 				"/>
			</g>
			<g>
				<polygon class="st1" points="164.2,256.1 161.5,256.1 -17.7,-11.3 -15.1,-11.3 				"/>
			</g>
			<g>
				<polygon class="st1" points="171.7,256.1 169,256.1 -10.2,-11.3 -7.5,-11.3 				"/>
			</g>
			<g>
				<polygon class="st1" points="179.2,256.1 176.5,256.1 -2.7,-11.3 0,-11.3 				"/>
			</g>
			<g>
				<polygon class="st1" points="186.7,256.1 184,256.1 4.8,-11.3 7.5,-11.3 				"/>
			</g>
			<g>
				<polygon class="st1" points="194.2,256.1 191.5,256.1 12.3,-11.3 15,-11.3 				"/>
			</g>
			<g>
				<polygon class="st1" points="201.7,256.1 199,256.1 19.8,-11.3 22.5,-11.3 				"/>
			</g>
			<g>
				<polygon class="st1" points="209.2,256.1 206.5,256.1 27.3,-11.3 30,-11.3 				"/>
			</g>
			<g>
				<polygon class="st1" points="216.7,256.1 214,256.1 34.8,-11.3 37.5,-11.3 				"/>
			</g>
			<g>
				<polygon class="st1" points="224.2,256.1 221.6,256.1 42.4,-11.3 45,-11.3 				"/>
			</g>
			<g>
				<polygon class="st1" points="231.7,256.1 229.1,256.1 49.9,-11.3 52.5,-11.3 				"/>
			</g>
			<g>
				<polygon class="st1" points="239.2,256.1 236.6,256.1 57.4,-11.3 60,-11.3 				"/>
			</g>
			<g>
				<polygon class="st1" points="246.7,256.1 244.1,256.1 64.9,-11.3 67.5,-11.3 				"/>
			</g>
			<g>
				<polygon class="st1" points="254.2,256.1 251.6,256.1 72.4,-11.3 75,-11.3 				"/>
			</g>
			<g>
				<polygon class="st1" points="261.7,256.1 259.1,256.1 79.9,-11.3 82.5,-11.3 				"/>
			</g>
			<g>
				<polygon class="st1" points="269.2,256.1 266.6,256.1 87.4,-11.3 90,-11.3 				"/>
			</g>
			<g>
				<polygon class="st1" points="276.7,256.1 274.1,256.1 94.9,-11.3 97.5,-11.3 				"/>
			</g>
			<g>
				<polygon class="st1" points="284.2,256.1 281.6,256.1 102.4,-11.3 105,-11.3 				"/>
			</g>
			<g>
				<polygon class="st1" points="291.7,256.1 289.1,256.1 109.9,-11.3 112.5,-11.3 				"/>
			</g>
			<g>
				<polygon class="st1" points="299.2,256.1 296.6,256.1 117.4,-11.3 120,-11.3 				"/>
			</g>
			<g>
				<polygon class="st1" points="306.7,256.1 304.1,256.1 124.9,-11.3 127.5,-11.3 				"/>
			</g>
			<g>
				<polygon class="st1" points="314.2,256.1 311.6,256.1 132.4,-11.3 135,-11.3 				"/>
			</g>
			<g>
				<polygon class="st1" points="321.7,256.1 319.1,256.1 139.9,-11.3 142.5,-11.3 				"/>
			</g>
			<g>
				<polygon class="st1" points="329.2,256.1 326.6,256.1 147.4,-11.3 150,-11.3 				"/>
			</g>
			<g>
				<polygon class="st1" points="336.7,256.1 334.1,256.1 154.9,-11.3 157.5,-11.3 				"/>
			</g>
			<g>
				<polygon class="st1" points="344.2,256.1 341.6,256.1 162.4,-11.3 165,-11.3 				"/>
			</g>
			<g>
				<polygon class="st1" points="351.7,256.1 349.1,256.1 169.9,-11.3 172.5,-11.3 				"/>
			</g>
			<g>
				<polygon class="st1" points="359.2,256.1 356.6,256.1 177.4,-11.3 180,-11.3 				"/>
			</g>
		</g>
	</g>
</g>
<g>
	<g>
		<defs>
			<path id="SVGID_00000019661026572987451660000002508019504442308261_" d="M311.7,33.3c-43.5,0-78.8,35.3-78.8,78.8
				s35.3,78.8,78.8,78.8s78.8-35.3,78.8-78.8S355.2,33.3,311.7,33.3z M311.7,168.5c-31.2,0-56.4-25.3-56.4-56.4s25.3-56.4,56.4-56.4
				s56.4,25.3,56.4,56.4S342.8,168.5,311.7,168.5z"/>
		</defs>
		<clipPath id="SVGID_00000105396374700480553250000003851666444406978449_">
			<use xlink:href="#SVGID_00000019661026572987451660000002508019504442308261_"  style="overflow:visible;"/>
		</clipPath>
		<g style="clip-path:url(#SVGID_00000105396374700480553250000003851666444406978449_);">
			<g class="st3">
				<g>
					<polygon class="st1" points="113.7,256 111.1,256 -68.1,-11.4 -65.5,-11.4 					"/>
				</g>
				<g>
					<polygon class="st1" points="121.2,256 118.6,256 -60.6,-11.4 -58,-11.4 					"/>
				</g>
				<g>
					<polygon class="st1" points="128.7,256 126.1,256 -53.1,-11.4 -50.5,-11.4 					"/>
				</g>
				<g>
					<polygon class="st1" points="136.2,256 133.6,256 -45.6,-11.4 -43,-11.4 					"/>
				</g>
				<g>
					<polygon class="st1" points="143.7,256 141.1,256 -38.1,-11.4 -35.5,-11.4 					"/>
				</g>
				<g>
					<polygon class="st1" points="151.2,256 148.6,256 -30.6,-11.4 -28,-11.4 					"/>
				</g>
				<g>
					<polygon class="st1" points="158.7,256 156.1,256 -23.1,-11.4 -20.5,-11.4 					"/>
				</g>
				<g>
					<polygon class="st1" points="166.2,256 163.6,256 -15.6,-11.4 -13,-11.4 					"/>
				</g>
				<g>
					<polygon class="st1" points="173.7,256 171.1,256 -8.1,-11.4 -5.5,-11.4 					"/>
				</g>
				<g>
					<polygon class="st1" points="181.2,256 178.6,256 -0.6,-11.4 2,-11.4 					"/>
				</g>
				<g>
					<polygon class="st1" points="188.8,256 186.1,256 6.9,-11.4 9.5,-11.4 					"/>
				</g>
				<g>
					<polygon class="st1" points="196.2,256 193.6,256 14.4,-11.4 17,-11.4 					"/>
				</g>
				<g>
					<polygon class="st1" points="203.8,256 201.1,256 21.9,-11.4 24.6,-11.4 					"/>
				</g>
				<g>
					<polygon class="st1" points="211.3,256 208.6,256 29.4,-11.4 32.1,-11.4 					"/>
				</g>
				<g>
					<polygon class="st1" points="218.8,256 216.1,256 36.9,-11.4 39.6,-11.4 					"/>
				</g>
				<g>
					<polygon class="st1" points="226.3,256 223.6,256 44.4,-11.4 47.1,-11.4 					"/>
				</g>
				<g>
					<polygon class="st1" points="233.8,256 231.1,256 51.9,-11.4 54.6,-11.4 					"/>
				</g>
				<g>
					<polygon class="st1" points="241.3,256 238.6,256 59.4,-11.4 62.1,-11.4 					"/>
				</g>
				<g>
					<polygon class="st1" points="248.8,256 246.1,256 66.9,-11.4 69.6,-11.4 					"/>
				</g>
				<g>
					<polygon class="st1" points="256.3,256 253.6,256 74.4,-11.4 77.1,-11.4 					"/>
				</g>
				<g>
					<polygon class="st1" points="263.8,256 261.2,256 82,-11.4 84.6,-11.4 					"/>
				</g>
				<g>
					<polygon class="st1" points="271.3,256 268.7,256 89.5,-11.4 92.1,-11.4 					"/>
				</g>
				<g>
					<polygon class="st1" points="278.8,256 276.2,256 97,-11.4 99.6,-11.4 					"/>
				</g>
				<g>
					<polygon class="st1" points="286.3,256 283.7,256 104.5,-11.4 107.1,-11.4 					"/>
				</g>
				<g>
					<polygon class="st1" points="293.8,256 291.2,256 112,-11.4 114.6,-11.4 					"/>
				</g>
				<g>
					<polygon class="st1" points="301.3,256 298.7,256 119.5,-11.4 122.1,-11.4 					"/>
				</g>
				<g>
					<polygon class="st1" points="308.8,256 306.2,256 127,-11.4 129.6,-11.4 					"/>
				</g>
				<g>
					<polygon class="st1" points="316.3,256 313.7,256 134.5,-11.4 137.1,-11.4 					"/>
				</g>
				<g>
					<polygon class="st1" points="323.8,256 321.2,256 142,-11.4 144.6,-11.4 					"/>
				</g>
				<g>
					<polygon class="st1" points="331.3,256 328.7,256 149.5,-11.4 152.1,-11.4 					"/>
				</g>
				<g>
					<polygon class="st1" points="338.8,256 336.2,256 157,-11.4 159.6,-11.4 					"/>
				</g>
				<g>
					<polygon class="st1" points="346.3,256 343.7,256 164.5,-11.4 167.1,-11.4 					"/>
				</g>
				<g>
					<polygon class="st1" points="353.8,256 351.2,256 172,-11.4 174.6,-11.4 					"/>
				</g>
				<g>
					<polygon class="st1" points="361.3,256 358.7,256 179.5,-11.4 182.1,-11.4 					"/>
				</g>
			</g>
		</g>
	</g>
</g>
</svg>
