<?xml version="1.0" encoding="utf-8"?>
<!-- Generator: Adobe Illustrator 27.7.0, SVG Export Plug-In . SVG Version: 6.00 Build 0)  -->
<svg version="1.1" id="Layer_1" xmlns="http://www.w3.org/2000/svg" xmlns:xlink="http://www.w3.org/1999/xlink" x="0px" y="0px"
	 viewBox="0 0 184 224" style="enable-background:new 0 0 184 224;" xml:space="preserve">
<style type="text/css">
	.st0{opacity:0.2;clip-path:url(#SVGID_00000056423909934869974390000001330437557056035238_);}
	.st1{fill:#FFFFFF;}
	.st2{clip-path:url(#SVGID_00000042000188197849739960000005462984563449011865_);}
	.st3{opacity:0.2;}
	.st4{fill:#FF0000;stroke:#FFFFFF;stroke-width:0.25;stroke-miterlimit:10;}
	.st5{fill:none;stroke:#FFFFFF;stroke-width:0.25;stroke-miterlimit:10;}
	.st6{fill:#FBB03B;}
</style>
<g>
	<g>
		<defs>
			<rect id="SVGID_1_" x="-429.3" y="-0.2" width="184" height="224.1"/>
		</defs>
		<clipPath id="SVGID_00000093893284349904909450000003473749531280852355_">
			<use xlink:href="#SVGID_1_"  style="overflow:visible;"/>
		</clipPath>
		<g style="opacity:0.2;clip-path:url(#SVGID_00000093893284349904909450000003473749531280852355_);">
			<g>
				<polygon class="st1" points="5,255.9 2.3,255.9 -176.9,-11.4 -174.2,-11.4 				"/>
			</g>
			<g>
				<polygon class="st1" points="12.5,255.9 9.8,255.9 -169.4,-11.4 -166.7,-11.4 				"/>
			</g>
			<g>
				<polygon class="st1" points="20,255.9 17.3,255.9 -161.9,-11.4 -159.2,-11.4 				"/>
			</g>
			<g>
				<polygon class="st1" points="27.5,255.9 24.9,255.9 -154.3,-11.4 -151.7,-11.4 				"/>
			</g>
			<g>
				<polygon class="st1" points="35,255.9 32.4,255.9 -146.8,-11.4 -144.2,-11.4 				"/>
			</g>
			<g>
				<polygon class="st1" points="42.5,255.9 39.9,255.9 -139.3,-11.4 -136.7,-11.4 				"/>
			</g>
		</g>
	</g>
</g>
<g>
	<g>
		<defs>
			<path id="SVGID_00000162312929459474216150000007843073218523961495_" d="M-117.6,33.2c-43.5,0-78.8,35.3-78.8,78.8
				s35.3,78.8,78.8,78.8s78.8-35.3,78.8-78.8S-74.1,33.2-117.6,33.2z M-117.6,168.4c-31.2,0-56.4-25.3-56.4-56.4
				s25.3-56.4,56.4-56.4s56.4,25.3,56.4,56.4S-86.5,168.4-117.6,168.4z"/>
		</defs>
		<clipPath id="SVGID_00000018196866380883032240000016682799358327994807_">
			<use xlink:href="#SVGID_00000162312929459474216150000007843073218523961495_"  style="overflow:visible;"/>
		</clipPath>
		<g style="clip-path:url(#SVGID_00000018196866380883032240000016682799358327994807_);">
			<g class="st3">
				<g>
					<polygon class="st1" points="7.1,255.9 4.4,255.9 -174.8,-11.4 -172.1,-11.4 					"/>
				</g>
				<g>
					<polygon class="st1" points="14.6,255.9 11.9,255.9 -167.3,-11.4 -164.6,-11.4 					"/>
				</g>
				<g>
					<polygon class="st1" points="22.1,255.9 19.4,255.9 -159.8,-11.4 -157.1,-11.4 					"/>
				</g>
				<g>
					<polygon class="st1" points="29.6,255.9 26.9,255.9 -152.3,-11.4 -149.6,-11.4 					"/>
				</g>
				<g>
					<polygon class="st1" points="37.1,255.9 34.4,255.9 -144.8,-11.4 -142.1,-11.4 					"/>
				</g>
				<g>
					<polygon class="st1" points="44.6,255.9 41.9,255.9 -137.3,-11.4 -134.6,-11.4 					"/>
				</g>
				<g>
					<polygon class="st1" points="52.1,255.9 49.4,255.9 -129.8,-11.4 -127.1,-11.4 					"/>
				</g>
				<g>
					<polygon class="st1" points="59.6,255.9 56.9,255.9 -122.3,-11.4 -119.6,-11.4 					"/>
				</g>
				<g>
					<polygon class="st1" points="67.1,255.9 64.5,255.9 -114.7,-11.4 -112.1,-11.4 					"/>
				</g>
				<g>
					<polygon class="st1" points="74.6,255.9 72,255.9 -107.2,-11.4 -104.6,-11.4 					"/>
				</g>
				<g>
					<polygon class="st1" points="82.1,255.9 79.5,255.9 -99.7,-11.4 -97.1,-11.4 					"/>
				</g>
				<g>
					<polygon class="st1" points="89.6,255.9 87,255.9 -92.2,-11.4 -89.6,-11.4 					"/>
				</g>
				<g>
					<polygon class="st1" points="97.1,255.9 94.5,255.9 -84.7,-11.4 -82.1,-11.4 					"/>
				</g>
				<g>
					<polygon class="st1" points="104.6,255.9 102,255.9 -77.2,-11.4 -74.6,-11.4 					"/>
				</g>
				<g>
					<polygon class="st1" points="112.1,255.9 109.5,255.9 -69.7,-11.4 -67.1,-11.4 					"/>
				</g>
				<g>
					<polygon class="st1" points="119.6,255.9 117,255.9 -62.2,-11.4 -59.6,-11.4 					"/>
				</g>
				<g>
					<polygon class="st1" points="127.1,255.9 124.5,255.9 -54.7,-11.4 -52.1,-11.4 					"/>
				</g>
				<g>
					<polygon class="st1" points="134.6,255.9 132,255.9 -47.2,-11.4 -44.6,-11.4 					"/>
				</g>
				<g>
					<polygon class="st1" points="142.1,255.9 139.5,255.9 -39.7,-11.4 -37.1,-11.4 					"/>
				</g>
				<g>
					<polygon class="st1" points="149.6,255.9 147,255.9 -32.2,-11.4 -29.6,-11.4 					"/>
				</g>
				<g>
					<polygon class="st1" points="157.1,255.9 154.5,255.9 -24.7,-11.4 -22.1,-11.4 					"/>
				</g>
				<g>
					<polygon class="st1" points="164.6,255.9 162,255.9 -17.2,-11.4 -14.6,-11.4 					"/>
				</g>
				<g>
					<polygon class="st1" points="172.1,255.9 169.5,255.9 -9.7,-11.4 -7.1,-11.4 					"/>
				</g>
				<g>
					<polygon class="st1" points="179.6,255.9 177,255.9 -2.2,-11.4 0.4,-11.4 					"/>
				</g>
				<g>
					<polygon class="st1" points="187.1,255.9 184.5,255.9 5.3,-11.4 7.9,-11.4 					"/>
				</g>
				<g>
					<polygon class="st1" points="194.6,255.9 192,255.9 12.8,-11.4 15.4,-11.4 					"/>
				</g>
				<g>
					<polygon class="st1" points="202.1,255.9 199.5,255.9 20.3,-11.4 22.9,-11.4 					"/>
				</g>
				<g>
					<polygon class="st1" points="209.6,255.9 207,255.9 27.8,-11.4 30.4,-11.4 					"/>
				</g>
				<g>
					<polygon class="st1" points="217.1,255.9 214.5,255.9 35.3,-11.4 37.9,-11.4 					"/>
				</g>
				<g>
					<polygon class="st1" points="224.6,255.9 222,255.9 42.8,-11.4 45.4,-11.4 					"/>
				</g>
				<g>
					<polygon class="st1" points="232.1,255.9 229.5,255.9 50.3,-11.4 52.9,-11.4 					"/>
				</g>
				<g>
					<polygon class="st1" points="239.7,255.9 237,255.9 57.8,-11.4 60.5,-11.4 					"/>
				</g>
				<g>
					<polygon class="st1" points="247.2,255.9 244.5,255.9 65.3,-11.4 68,-11.4 					"/>
				</g>
				<g>
					<polygon class="st1" points="254.7,255.9 252,255.9 72.8,-11.4 75.5,-11.4 					"/>
				</g>
				<g>
					<polygon class="st1" points="262.2,255.9 259.5,255.9 80.3,-11.4 83,-11.4 					"/>
				</g>
			</g>
		</g>
	</g>
</g>
<g>
	<path class="st6" d="M112.3,47.5l-8.2,23.2c0.6,0.2,1.2,0.4,1.8,0.6c0.1,0,0.1,0,0.1,0.1l8-23.2L112.3,47.5z"/>
</g>
</svg>
