<?xml version="1.0" encoding="utf-8"?>
<!-- Generator: Adobe Illustrator 27.7.0, SVG Export Plug-In . SVG Version: 6.00 Build 0)  -->
<svg version="1.1" id="Layer_1" xmlns="http://www.w3.org/2000/svg" xmlns:xlink="http://www.w3.org/1999/xlink" x="0px" y="0px"
	 viewBox="0 0 157.8 157.8" style="enable-background:new 0 0 157.8 157.8;" xml:space="preserve">
<style type="text/css">
	.st0{opacity:0.2;clip-path:url(#SVGID_00000111895280146760203640000008125160732280420768_);}
	.st1{fill:#FFFFFF;}
	.st2{clip-path:url(#SVGID_00000026135686790512934590000010860280630496394394_);}
	.st3{opacity:0.2;}
	.st4{fill:#FF0000;stroke:#FFFFFF;stroke-width:0.25;stroke-miterlimit:10;}
	.st5{fill:none;stroke:#FFFFFF;stroke-width:0.25;stroke-miterlimit:10;}
	.st6{fill:#FBB03B;}
</style>
<g>
	<g>
		<defs>
			<rect id="SVGID_1_" x="-232.8" y="-33.2" width="184" height="224.1"/>
		</defs>
		<clipPath id="SVGID_00000146472500372517932370000015840223762232760713_">
			<use xlink:href="#SVGID_1_"  style="overflow:visible;"/>
		</clipPath>
		<g style="opacity:0.2;clip-path:url(#SVGID_00000146472500372517932370000015840223762232760713_);">
			<g>
				<polygon class="st1" points="6.4,222.9 3.8,222.9 -175.4,-44.4 -172.8,-44.4 				"/>
			</g>
			<g>
				<polygon class="st1" points="13.9,222.9 11.3,222.9 -167.9,-44.4 -165.3,-44.4 				"/>
			</g>
			<g>
				<polygon class="st1" points="21.4,222.9 18.8,222.9 -160.4,-44.4 -157.8,-44.4 				"/>
			</g>
			<g>
				<polygon class="st1" points="28.9,222.9 26.3,222.9 -152.9,-44.4 -150.3,-44.4 				"/>
			</g>
			<g>
				<polygon class="st1" points="36.4,222.9 33.8,222.9 -145.4,-44.4 -142.8,-44.4 				"/>
			</g>
			<g>
				<polygon class="st1" points="43.9,222.9 41.3,222.9 -137.9,-44.4 -135.3,-44.4 				"/>
			</g>
			<g>
				<polygon class="st1" points="51.4,222.9 48.8,222.9 -130.4,-44.4 -127.8,-44.4 				"/>
			</g>
			<g>
				<polygon class="st1" points="58.9,222.9 56.3,222.9 -122.9,-44.4 -120.3,-44.4 				"/>
			</g>
			<g>
				<polygon class="st1" points="66.4,222.9 63.8,222.9 -115.4,-44.4 -112.8,-44.4 				"/>
			</g>
			<g>
				<polygon class="st1" points="73.9,222.9 71.3,222.9 -107.9,-44.4 -105.3,-44.4 				"/>
			</g>
			<g>
				<polygon class="st1" points="81.4,222.9 78.8,222.9 -100.4,-44.4 -97.8,-44.4 				"/>
			</g>
			<g>
				<polygon class="st1" points="88.9,222.9 86.3,222.9 -92.9,-44.4 -90.3,-44.4 				"/>
			</g>
			<g>
				<polygon class="st1" points="96.5,222.9 93.8,222.9 -85.4,-44.4 -82.7,-44.4 				"/>
			</g>
			<g>
				<polygon class="st1" points="104,222.9 101.3,222.9 -77.9,-44.4 -75.2,-44.4 				"/>
			</g>
			<g>
				<polygon class="st1" points="111.5,222.9 108.8,222.9 -70.4,-44.4 -67.7,-44.4 				"/>
			</g>
			<g>
				<polygon class="st1" points="119,222.9 116.3,222.9 -62.9,-44.4 -60.2,-44.4 				"/>
			</g>
			<g>
				<polygon class="st1" points="126.5,222.9 123.8,222.9 -55.4,-44.4 -52.7,-44.4 				"/>
			</g>
			<g>
				<polygon class="st1" points="134,222.9 131.3,222.9 -47.9,-44.4 -45.2,-44.4 				"/>
			</g>
			<g>
				<polygon class="st1" points="141.5,222.9 138.8,222.9 -40.4,-44.4 -37.7,-44.4 				"/>
			</g>
			<g>
				<polygon class="st1" points="149,222.9 146.3,222.9 -32.9,-44.4 -30.2,-44.4 				"/>
			</g>
			<g>
				<polygon class="st1" points="156.5,222.9 153.9,222.9 -25.3,-44.4 -22.7,-44.4 				"/>
			</g>
			<g>
				<polygon class="st1" points="164,222.9 161.4,222.9 -17.8,-44.4 -15.2,-44.4 				"/>
			</g>
			<g>
				<polygon class="st1" points="171.5,222.9 168.9,222.9 -10.3,-44.4 -7.7,-44.4 				"/>
			</g>
			<g>
				<polygon class="st1" points="179,222.9 176.4,222.9 -2.8,-44.4 -0.2,-44.4 				"/>
			</g>
			<g>
				<polygon class="st1" points="186.5,222.9 183.9,222.9 4.7,-44.4 7.3,-44.4 				"/>
			</g>
			<g>
				<polygon class="st1" points="194,222.9 191.4,222.9 12.2,-44.4 14.8,-44.4 				"/>
			</g>
			<g>
				<polygon class="st1" points="201.5,222.9 198.9,222.9 19.7,-44.4 22.3,-44.4 				"/>
			</g>
			<g>
				<polygon class="st1" points="209,222.9 206.4,222.9 27.2,-44.4 29.8,-44.4 				"/>
			</g>
			<g>
				<polygon class="st1" points="216.5,222.9 213.9,222.9 34.7,-44.4 37.3,-44.4 				"/>
			</g>
			<g>
				<polygon class="st1" points="224,222.9 221.4,222.9 42.2,-44.4 44.8,-44.4 				"/>
			</g>
			<g>
				<polygon class="st1" points="231.5,222.9 228.9,222.9 49.7,-44.4 52.3,-44.4 				"/>
			</g>
			<g>
				<polygon class="st1" points="239,222.9 236.4,222.9 57.2,-44.4 59.8,-44.4 				"/>
			</g>
		</g>
	</g>
</g>
<g>
	<g>
		<defs>
			<path id="SVGID_00000019661026572987451660000002508019504442308261_" d="M78.9,0.1C35.4,0.1,0.1,35.4,0.1,78.9
				s35.3,78.8,78.8,78.8s78.8-35.3,78.8-78.8S122.4,0.1,78.9,0.1z M78.9,135.3c-31.2,0-56.4-25.3-56.4-56.4s25.3-56.4,56.4-56.4
				s56.4,25.3,56.4,56.4S110.1,135.3,78.9,135.3z"/>
		</defs>
		<clipPath id="SVGID_00000045610193964072456210000008463290757599450532_">
			<use xlink:href="#SVGID_00000019661026572987451660000002508019504442308261_"  style="overflow:visible;"/>
		</clipPath>
		<g style="clip-path:url(#SVGID_00000045610193964072456210000008463290757599450532_);">
			<rect x="-13.1" y="-33.1" width="184" height="223.9"/>
			<g class="st3">
				<g>
					<polygon class="st1" points="1,222.8 -1.6,222.8 -180.8,-44.5 -178.2,-44.5 					"/>
				</g>
				<g>
					<polygon class="st1" points="8.5,222.8 5.9,222.8 -173.3,-44.5 -170.7,-44.5 					"/>
				</g>
				<g>
					<polygon class="st1" points="16,222.8 13.4,222.8 -165.8,-44.5 -163.2,-44.5 					"/>
				</g>
				<g>
					<polygon class="st1" points="23.5,222.8 20.9,222.8 -158.3,-44.5 -155.7,-44.5 					"/>
				</g>
				<g>
					<polygon class="st1" points="31,222.8 28.4,222.8 -150.8,-44.5 -148.2,-44.5 					"/>
				</g>
				<g>
					<polygon class="st1" points="38.5,222.8 35.9,222.8 -143.3,-44.5 -140.7,-44.5 					"/>
				</g>
				<g>
					<polygon class="st1" points="46,222.8 43.4,222.8 -135.8,-44.5 -133.2,-44.5 					"/>
				</g>
				<g>
					<polygon class="st1" points="53.5,222.8 50.9,222.8 -128.3,-44.5 -125.7,-44.5 					"/>
				</g>
				<g>
					<polygon class="st1" points="61,222.8 58.4,222.8 -120.8,-44.5 -118.2,-44.5 					"/>
				</g>
				<g>
					<polygon class="st1" points="68.5,222.8 65.9,222.8 -113.3,-44.5 -110.7,-44.5 					"/>
				</g>
				<g>
					<polygon class="st1" points="76,222.8 73.4,222.8 -105.8,-44.5 -103.2,-44.5 					"/>
				</g>
				<g>
					<polygon class="st1" points="83.5,222.8 80.9,222.8 -98.3,-44.5 -95.7,-44.5 					"/>
				</g>
				<g>
					<polygon class="st1" points="91,222.8 88.4,222.8 -90.8,-44.5 -88.2,-44.5 					"/>
				</g>
				<g>
					<polygon class="st1" points="98.5,222.8 95.9,222.8 -83.3,-44.5 -80.7,-44.5 					"/>
				</g>
				<g>
					<polygon class="st1" points="106,222.8 103.4,222.8 -75.8,-44.5 -73.2,-44.5 					"/>
				</g>
				<g>
					<polygon class="st1" points="113.5,222.8 110.9,222.8 -68.3,-44.5 -65.7,-44.5 					"/>
				</g>
				<g>
					<polygon class="st1" points="121,222.8 118.4,222.8 -60.8,-44.5 -58.2,-44.5 					"/>
				</g>
				<g>
					<polygon class="st1" points="128.5,222.8 125.9,222.8 -53.3,-44.5 -50.7,-44.5 					"/>
				</g>
				<g>
					<polygon class="st1" points="136.1,222.8 133.4,222.8 -45.8,-44.5 -43.1,-44.5 					"/>
				</g>
				<g>
					<polygon class="st1" points="143.6,222.8 140.9,222.8 -38.3,-44.5 -35.6,-44.5 					"/>
				</g>
				<g>
					<polygon class="st1" points="151.1,222.8 148.4,222.8 -30.8,-44.5 -28.1,-44.5 					"/>
				</g>
				<g>
					<polygon class="st1" points="158.6,222.8 155.9,222.8 -23.3,-44.5 -20.6,-44.5 					"/>
				</g>
				<g>
					<polygon class="st1" points="166.1,222.8 163.4,222.8 -15.8,-44.5 -13.1,-44.5 					"/>
				</g>
				<g>
					<polygon class="st1" points="173.6,222.8 170.9,222.8 -8.3,-44.5 -5.6,-44.5 					"/>
				</g>
				<g>
					<polygon class="st1" points="181.1,222.8 178.4,222.8 -0.8,-44.5 1.9,-44.5 					"/>
				</g>
				<g>
					<polygon class="st1" points="188.6,222.8 186,222.8 6.8,-44.5 9.4,-44.5 					"/>
				</g>
				<g>
					<polygon class="st1" points="196.1,222.8 193.5,222.8 14.3,-44.5 16.9,-44.5 					"/>
				</g>
				<g>
					<polygon class="st1" points="203.6,222.8 201,222.8 21.8,-44.5 24.4,-44.5 					"/>
				</g>
				<g>
					<polygon class="st1" points="211.1,222.8 208.5,222.8 29.3,-44.5 31.9,-44.5 					"/>
				</g>
				<g>
					<polygon class="st1" points="218.6,222.8 216,222.8 36.8,-44.5 39.4,-44.5 					"/>
				</g>
				<g>
					<polygon class="st1" points="226.1,222.8 223.5,222.8 44.3,-44.5 46.9,-44.5 					"/>
				</g>
				<g>
					<polygon class="st1" points="233.6,222.8 231,222.8 51.8,-44.5 54.4,-44.5 					"/>
				</g>
				<g>
					<polygon class="st1" points="241.1,222.8 238.5,222.8 59.3,-44.5 61.9,-44.5 					"/>
				</g>
				<g>
					<polygon class="st1" points="248.6,222.8 246,222.8 66.8,-44.5 69.4,-44.5 					"/>
				</g>
				<g>
					<polygon class="st1" points="256.1,222.8 253.5,222.8 74.3,-44.5 76.9,-44.5 					"/>
				</g>
				<g>
					<polygon class="st1" points="263.6,222.8 261,222.8 81.8,-44.5 84.4,-44.5 					"/>
				</g>
				<g>
					<polygon class="st1" points="271.1,222.8 268.5,222.8 89.3,-44.5 91.9,-44.5 					"/>
				</g>
				<g>
					<polygon class="st1" points="278.6,222.8 276,222.8 96.8,-44.5 99.4,-44.5 					"/>
				</g>
				<g>
					<polygon class="st1" points="286.1,222.8 283.5,222.8 104.3,-44.5 106.9,-44.5 					"/>
				</g>
				<g>
					<polygon class="st1" points="293.6,222.8 291,222.8 111.8,-44.5 114.4,-44.5 					"/>
				</g>
				<g>
					<polygon class="st1" points="301.1,222.8 298.5,222.8 119.3,-44.5 121.9,-44.5 					"/>
				</g>
				<g>
					<polygon class="st1" points="308.6,222.8 306,222.8 126.8,-44.5 129.4,-44.5 					"/>
				</g>
				<g>
					<polygon class="st1" points="316.1,222.8 313.5,222.8 134.3,-44.5 136.9,-44.5 					"/>
				</g>
				<g>
					<polygon class="st1" points="323.6,222.8 321,222.8 141.8,-44.5 144.4,-44.5 					"/>
				</g>
				<g>
					<polygon class="st1" points="331.1,222.8 328.5,222.8 149.3,-44.5 151.9,-44.5 					"/>
				</g>
				<g>
					<polygon class="st1" points="338.6,222.8 336,222.8 156.8,-44.5 159.4,-44.5 					"/>
				</g>
			</g>
		</g>
	</g>
</g>
<g>
	<g>
		<path class="st4" d="M135.3,78.9h19.1c0-20.8-8.4-39.7-22.1-53.4L118.8,39C129,49.2,135.3,63.3,135.3,78.9z"/>
		<path class="st5" d="M118.8,39l13.5-13.5C118.6,11.9,99.7,3.4,78.9,3.4v19C94.5,22.5,108.6,28.8,118.8,39z"/>
		<path class="st5" d="M78.9,22.5v-19c-20.8,0-39.7,8.5-53.4,22.1L39,39C49.2,28.8,63.3,22.5,78.9,22.5z"/>
		<path class="st5" d="M39,118.8l-13.5,13.5c13.7,13.7,32.5,22.1,53.4,22.1v-19.1C63.3,135.3,49.2,129,39,118.8z"/>
		<path class="st5" d="M135.3,78.9c0,31.2-25.3,56.4-56.4,56.4v19.1c41.7,0,75.5-33.8,75.5-75.5C154.4,78.9,135.3,78.9,135.3,78.9z"
			/>
		<path class="st5" d="M39,39L25.5,25.5C11.9,39.2,3.4,58.1,3.4,78.9h19C22.5,63.3,28.8,49.2,39,39z"/>
		<path class="st5" d="M22.5,78.9h-19c0,20.8,8.5,39.7,22.1,53.4L39,118.8C28.8,108.6,22.5,94.5,22.5,78.9z"/>
		<path class="st5" d="M22.5,78.9c0,15.6,6.3,29.7,16.5,39.9"/>
		<path class="st5" d="M39,39C28.8,49.2,22.5,63.3,22.5,78.9"/>
		<path class="st5" d="M118.8,39c-10.2-10.2-24.3-16.5-39.9-16.5"/>
		<path class="st5" d="M78.9,22.5C63.3,22.5,49.2,28.8,39,39"/>
		<path class="st5" d="M39,118.8c10.2,10.2,24.3,16.5,39.9,16.5"/>
		<path class="st5" d="M78.9,135.3c31.2,0,56.4-25.3,56.4-56.4"/>
	</g>
	<path class="st5" d="M78.9,139c-33.2,0-60.1-26.9-60.1-60.1s26.9-60.1,60.1-60.1S139,45.7,139,78.9"/>
	<circle class="st5" cx="78.9" cy="78.9" r="78.8"/>
	<polyline class="st5" points="118.3,118.8 110.7,111.3 47.1,111.3 39.2,119.1 	"/>
</g>
</svg>
