<?xml version="1.0" encoding="utf-8"?>
<!-- Generator: Adobe Illustrator 27.7.0, SVG Export Plug-In . SVG Version: 6.00 Build 0)  -->
<svg version="1.1" id="Layer_1" xmlns="http://www.w3.org/2000/svg" xmlns:xlink="http://www.w3.org/1999/xlink" x="0px" y="0px"
	 viewBox="0 0 184 224" style="enable-background:new 0 0 184 224;" xml:space="preserve">
<style type="text/css">
	.st0{opacity:0.2;clip-path:url(#SVGID_00000113326334806273697070000006386161276787243918_);}
	.st1{fill:#FFFFFF;}
	.st2{clip-path:url(#SVGID_00000004519861887047605580000017845531925532041112_);}
	.st3{opacity:0.2;}
	.st4{fill:#FF0000;stroke:#FFFFFF;stroke-width:0.25;stroke-miterlimit:10;}
	.st5{fill:none;stroke:#FFFFFF;stroke-width:0.25;stroke-miterlimit:10;}
	.st6{fill:#FBB03B;}
</style>
<g>
	<g>
		<defs>
			<rect id="SVGID_1_" x="-219.7" y="-0.2" width="184" height="224.1"/>
		</defs>
		<clipPath id="SVGID_00000088131566235098957700000005502983062687732621_">
			<use xlink:href="#SVGID_1_"  style="overflow:visible;"/>
		</clipPath>
		<g style="opacity:0.2;clip-path:url(#SVGID_00000088131566235098957700000005502983062687732621_);">
			<g>
				<polygon class="st1" points="4.5,255.9 1.9,255.9 -177.3,-11.4 -174.7,-11.4 				"/>
			</g>
			<g>
				<polygon class="st1" points="12,255.9 9.4,255.9 -169.8,-11.4 -167.2,-11.4 				"/>
			</g>
			<g>
				<polygon class="st1" points="19.5,255.9 16.9,255.9 -162.3,-11.4 -159.7,-11.4 				"/>
			</g>
			<g>
				<polygon class="st1" points="27,255.9 24.4,255.9 -154.8,-11.4 -152.2,-11.4 				"/>
			</g>
			<g>
				<polygon class="st1" points="34.5,255.9 31.9,255.9 -147.3,-11.4 -144.7,-11.4 				"/>
			</g>
			<g>
				<polygon class="st1" points="42,255.9 39.4,255.9 -139.8,-11.4 -137.2,-11.4 				"/>
			</g>
			<g>
				<polygon class="st1" points="49.5,255.9 46.9,255.9 -132.3,-11.4 -129.7,-11.4 				"/>
			</g>
			<g>
				<polygon class="st1" points="57,255.9 54.4,255.9 -124.8,-11.4 -122.2,-11.4 				"/>
			</g>
			<g>
				<polygon class="st1" points="64.5,255.9 61.9,255.9 -117.3,-11.4 -114.7,-11.4 				"/>
			</g>
			<g>
				<polygon class="st1" points="72,255.9 69.4,255.9 -109.8,-11.4 -107.2,-11.4 				"/>
			</g>
			<g>
				<polygon class="st1" points="79.5,255.9 76.9,255.9 -102.3,-11.4 -99.7,-11.4 				"/>
			</g>
			<g>
				<polygon class="st1" points="87,255.9 84.4,255.9 -94.8,-11.4 -92.2,-11.4 				"/>
			</g>
			<g>
				<polygon class="st1" points="94.5,255.9 91.9,255.9 -87.3,-11.4 -84.7,-11.4 				"/>
			</g>
			<g>
				<polygon class="st1" points="102,255.9 99.4,255.9 -79.8,-11.4 -77.2,-11.4 				"/>
			</g>
			<g>
				<polygon class="st1" points="109.6,255.9 106.9,255.9 -72.3,-11.4 -69.7,-11.4 				"/>
			</g>
			<g>
				<polygon class="st1" points="117.1,255.9 114.4,255.9 -64.8,-11.4 -62.2,-11.4 				"/>
			</g>
			<g>
				<polygon class="st1" points="124.6,255.9 121.9,255.9 -57.3,-11.4 -54.7,-11.4 				"/>
			</g>
			<g>
				<polygon class="st1" points="132.1,255.9 129.4,255.9 -49.8,-11.4 -47.1,-11.4 				"/>
			</g>
			<g>
				<polygon class="st1" points="139.6,255.9 136.9,255.9 -42.3,-11.4 -39.6,-11.4 				"/>
			</g>
			<g>
				<polygon class="st1" points="147.1,255.9 144.4,255.9 -34.8,-11.4 -32.1,-11.4 				"/>
			</g>
			<g>
				<polygon class="st1" points="154.6,255.9 151.9,255.9 -27.3,-11.4 -24.6,-11.4 				"/>
			</g>
			<g>
				<polygon class="st1" points="162.1,255.9 159.4,255.9 -19.8,-11.4 -17.1,-11.4 				"/>
			</g>
			<g>
				<polygon class="st1" points="169.6,255.9 166.9,255.9 -12.2,-11.4 -9.6,-11.4 				"/>
			</g>
			<g>
				<polygon class="st1" points="177.1,255.9 174.4,255.9 -4.8,-11.4 -2.1,-11.4 				"/>
			</g>
			<g>
				<polygon class="st1" points="184.6,255.9 181.9,255.9 2.8,-11.4 5.4,-11.4 				"/>
			</g>
			<g>
				<polygon class="st1" points="192.1,255.9 189.5,255.9 10.3,-11.4 12.9,-11.4 				"/>
			</g>
			<g>
				<polygon class="st1" points="199.6,255.9 197,255.9 17.8,-11.4 20.4,-11.4 				"/>
			</g>
			<g>
				<polygon class="st1" points="207.1,255.9 204.5,255.9 25.3,-11.4 27.9,-11.4 				"/>
			</g>
			<g>
				<polygon class="st1" points="214.6,255.9 212,255.9 32.8,-11.4 35.4,-11.4 				"/>
			</g>
			<g>
				<polygon class="st1" points="222.1,255.9 219.5,255.9 40.3,-11.4 42.9,-11.4 				"/>
			</g>
			<g>
				<polygon class="st1" points="229.6,255.9 227,255.9 47.8,-11.4 50.4,-11.4 				"/>
			</g>
			<g>
				<polygon class="st1" points="237.1,255.9 234.5,255.9 55.3,-11.4 57.9,-11.4 				"/>
			</g>
			<g>
				<polygon class="st1" points="244.6,255.9 242,255.9 62.8,-11.4 65.4,-11.4 				"/>
			</g>
			<g>
				<polygon class="st1" points="252.1,255.9 249.5,255.9 70.3,-11.4 72.9,-11.4 				"/>
			</g>
		</g>
	</g>
</g>
<g>
	<g>
		<defs>
			<path id="SVGID_00000162312929459474216150000007843073218523961495_" d="M92,33.2c-43.5,0-78.8,35.3-78.8,78.8
				s35.3,78.8,78.8,78.8s78.8-35.3,78.8-78.8S135.5,33.2,92,33.2z M92,168.4c-31.2,0-56.4-25.3-56.4-56.4S60.8,55.6,92,55.6
				s56.4,25.3,56.4,56.4S123.2,168.4,92,168.4z"/>
		</defs>
		<clipPath id="SVGID_00000147181283092762102220000002844592512904495293_">
			<use xlink:href="#SVGID_00000162312929459474216150000007843073218523961495_"  style="overflow:visible;"/>
		</clipPath>
		<g style="clip-path:url(#SVGID_00000147181283092762102220000002844592512904495293_);">
			<rect width="184" height="223.9"/>
			<g class="st3">
				<g>
					<polygon class="st1" points="6.6,255.9 4,255.9 -175.2,-11.4 -172.6,-11.4 					"/>
				</g>
				<g>
					<polygon class="st1" points="14.1,255.9 11.5,255.9 -167.7,-11.4 -165.1,-11.4 					"/>
				</g>
				<g>
					<polygon class="st1" points="21.6,255.9 19,255.9 -160.2,-11.4 -157.6,-11.4 					"/>
				</g>
				<g>
					<polygon class="st1" points="29.1,255.9 26.5,255.9 -152.7,-11.4 -150.1,-11.4 					"/>
				</g>
				<g>
					<polygon class="st1" points="36.6,255.9 34,255.9 -145.2,-11.4 -142.6,-11.4 					"/>
				</g>
				<g>
					<polygon class="st1" points="44.1,255.9 41.5,255.9 -137.7,-11.4 -135.1,-11.4 					"/>
				</g>
				<g>
					<polygon class="st1" points="51.6,255.9 49,255.9 -130.2,-11.4 -127.6,-11.4 					"/>
				</g>
				<g>
					<polygon class="st1" points="59.1,255.9 56.5,255.9 -122.7,-11.4 -120.1,-11.4 					"/>
				</g>
				<g>
					<polygon class="st1" points="66.6,255.9 64,255.9 -115.2,-11.4 -112.6,-11.4 					"/>
				</g>
				<g>
					<polygon class="st1" points="74.1,255.9 71.5,255.9 -107.7,-11.4 -105.1,-11.4 					"/>
				</g>
				<g>
					<polygon class="st1" points="81.6,255.9 79,255.9 -100.2,-11.4 -97.6,-11.4 					"/>
				</g>
				<g>
					<polygon class="st1" points="89.1,255.9 86.5,255.9 -92.7,-11.4 -90.1,-11.4 					"/>
				</g>
				<g>
					<polygon class="st1" points="96.6,255.9 94,255.9 -85.2,-11.4 -82.6,-11.4 					"/>
				</g>
				<g>
					<polygon class="st1" points="104.1,255.9 101.5,255.9 -77.7,-11.4 -75.1,-11.4 					"/>
				</g>
				<g>
					<polygon class="st1" points="111.6,255.9 109,255.9 -70.2,-11.4 -67.6,-11.4 					"/>
				</g>
				<g>
					<polygon class="st1" points="119.1,255.9 116.5,255.9 -62.7,-11.4 -60.1,-11.4 					"/>
				</g>
				<g>
					<polygon class="st1" points="126.6,255.9 124,255.9 -55.2,-11.4 -52.6,-11.4 					"/>
				</g>
				<g>
					<polygon class="st1" points="134.1,255.9 131.5,255.9 -47.7,-11.4 -45.1,-11.4 					"/>
				</g>
				<g>
					<polygon class="st1" points="141.6,255.9 139,255.9 -40.2,-11.4 -37.6,-11.4 					"/>
				</g>
				<g>
					<polygon class="st1" points="149.1,255.9 146.5,255.9 -32.7,-11.4 -30,-11.4 					"/>
				</g>
				<g>
					<polygon class="st1" points="156.6,255.9 154,255.9 -25.2,-11.4 -22.5,-11.4 					"/>
				</g>
				<g>
					<polygon class="st1" points="164.1,255.9 161.5,255.9 -17.7,-11.4 -15.1,-11.4 					"/>
				</g>
				<g>
					<polygon class="st1" points="171.7,255.9 169,255.9 -10.2,-11.4 -7.5,-11.4 					"/>
				</g>
				<g>
					<polygon class="st1" points="179.2,255.9 176.5,255.9 -2.7,-11.4 0,-11.4 					"/>
				</g>
				<g>
					<polygon class="st1" points="186.7,255.9 184,255.9 4.8,-11.4 7.5,-11.4 					"/>
				</g>
				<g>
					<polygon class="st1" points="194.2,255.9 191.5,255.9 12.3,-11.4 15,-11.4 					"/>
				</g>
				<g>
					<polygon class="st1" points="201.7,255.9 199.1,255.9 19.9,-11.4 22.5,-11.4 					"/>
				</g>
				<g>
					<polygon class="st1" points="209.2,255.9 206.6,255.9 27.4,-11.4 30,-11.4 					"/>
				</g>
				<g>
					<polygon class="st1" points="216.7,255.9 214.1,255.9 34.8,-11.4 37.5,-11.4 					"/>
				</g>
				<g>
					<polygon class="st1" points="224.2,255.9 221.6,255.9 42.4,-11.4 45,-11.4 					"/>
				</g>
				<g>
					<polygon class="st1" points="231.7,255.9 229.1,255.9 49.9,-11.4 52.5,-11.4 					"/>
				</g>
				<g>
					<polygon class="st1" points="239.2,255.9 236.6,255.9 57.4,-11.4 60,-11.4 					"/>
				</g>
				<g>
					<polygon class="st1" points="246.7,255.9 244.1,255.9 64.9,-11.4 67.5,-11.4 					"/>
				</g>
				<g>
					<polygon class="st1" points="254.2,255.9 251.6,255.9 72.4,-11.4 75,-11.4 					"/>
				</g>
				<g>
					<polygon class="st1" points="261.7,255.9 259.1,255.9 79.9,-11.4 82.5,-11.4 					"/>
				</g>
				<g>
					<polygon class="st1" points="269.2,255.9 266.6,255.9 87.4,-11.4 90,-11.4 					"/>
				</g>
				<g>
					<polygon class="st1" points="276.7,255.9 274.1,255.9 94.9,-11.4 97.5,-11.4 					"/>
				</g>
				<g>
					<polygon class="st1" points="284.2,255.9 281.6,255.9 102.4,-11.4 105,-11.4 					"/>
				</g>
				<g>
					<polygon class="st1" points="291.7,255.9 289.1,255.9 109.9,-11.4 112.5,-11.4 					"/>
				</g>
				<g>
					<polygon class="st1" points="299.2,255.9 296.6,255.9 117.4,-11.4 120,-11.4 					"/>
				</g>
				<g>
					<polygon class="st1" points="306.7,255.9 304.1,255.9 124.9,-11.4 127.5,-11.4 					"/>
				</g>
				<g>
					<polygon class="st1" points="314.2,255.9 311.6,255.9 132.4,-11.4 135,-11.4 					"/>
				</g>
				<g>
					<polygon class="st1" points="321.7,255.9 319.1,255.9 139.9,-11.4 142.5,-11.4 					"/>
				</g>
				<g>
					<polygon class="st1" points="329.2,255.9 326.6,255.9 147.4,-11.4 150,-11.4 					"/>
				</g>
				<g>
					<polygon class="st1" points="336.7,255.9 334.1,255.9 154.9,-11.4 157.5,-11.4 					"/>
				</g>
				<g>
					<polygon class="st1" points="344.2,255.9 341.6,255.9 162.4,-11.4 165,-11.4 					"/>
				</g>
				<g>
					<polygon class="st1" points="351.7,255.9 349.1,255.9 169.9,-11.4 172.5,-11.4 					"/>
				</g>
				<g>
					<polygon class="st1" points="359.2,255.9 356.6,255.9 177.4,-11.4 180,-11.4 					"/>
				</g>
			</g>
		</g>
	</g>
</g>
<g>
	<g>
		<path class="st4" d="M148.4,112h19.1c0-20.8-8.4-39.7-22.1-53.4l-13.5,13.5C142.1,82.3,148.4,96.4,148.4,112z"/>
		<path class="st5" d="M131.9,72.1l13.5-13.5C131.7,45,112.8,36.5,92,36.5v19C107.6,55.6,121.7,61.9,131.9,72.1z"/>
		<path class="st5" d="M92,55.6v-19c-20.8,0-39.7,8.5-53.4,22.1l13.5,13.5C62.3,61.9,76.4,55.6,92,55.6z"/>
		<path class="st5" d="M52.1,151.9l-13.5,13.5C52.3,179,71.2,187.5,92,187.5v-19.1C76.4,168.4,62.3,162.1,52.1,151.9z"/>
		<path class="st5" d="M148.4,112c0,31.2-25.3,56.4-56.4,56.4v19.1c41.7,0,75.5-33.8,75.5-75.5C167.5,112,148.4,112,148.4,112z"/>
		<path class="st5" d="M52.1,72.1L38.6,58.6C25,72.3,16.5,91.2,16.5,112h19C35.6,96.4,41.9,82.3,52.1,72.1z"/>
		<path class="st5" d="M35.6,112h-19c0,20.8,8.5,39.7,22.1,53.4l13.5-13.5C41.9,141.7,35.6,127.6,35.6,112z"/>
		<path class="st5" d="M35.6,112c0,15.6,6.3,29.7,16.5,39.9"/>
		<path class="st5" d="M52.1,72.1C41.9,82.3,35.6,96.4,35.6,112"/>
		<path class="st5" d="M131.9,72.1C121.7,61.9,107.6,55.6,92,55.6"/>
		<path class="st5" d="M92,55.6c-15.6,0-29.7,6.3-39.9,16.5"/>
		<path class="st5" d="M52.1,151.9c10.2,10.2,24.3,16.5,39.9,16.5"/>
		<path class="st5" d="M92,168.4c31.2,0,56.4-25.3,56.4-56.4"/>
	</g>
	<path class="st5" d="M92,172.1c-33.2,0-60.1-26.9-60.1-60.1S58.8,51.9,92,51.9s60.1,26.9,60.1,60.1"/>
	<circle class="st5" cx="92" cy="112" r="78.8"/>
	<polyline class="st5" points="131.4,151.9 123.8,144.4 60.2,144.4 52.3,152.1 	"/>
</g>
</svg>
